<?xml version="1.0" encoding="UTF-8" standalone="no" ?>
<!DOCTYPE svg PUBLIC "-//W3C//DTD SVG 1.1//EN" "http://www.w3.org/Graphics/SVG/1.1/DTD/svg11.dtd">
<svg xmlns="http://www.w3.org/2000/svg" xmlns:xlink="http://www.w3.org/1999/xlink" version="1.1" width="297.3598937988281" height="263.432" xml:space="preserve">
<desc>Created with Fabric.js 1.6.0-rc.1</desc>
<defs></defs>
<g style="stroke: none; stroke-width: 1; stroke-dasharray: none; stroke-linecap: butt; stroke-linejoin: miter; stroke-miterlimit: 10; fill: none; fill-rule: nonzero; opacity: 1;" transform="translate(31.090000000000032 10) scale(0.46 0.45)" >
  <path d="M 485.517 61.793 H 26.483 C 11.857 61.793 0 73.65 0 88.276 v 335.448 c 0 14.626 11.857 26.483 26.483 26.483 h 459.034 c 14.626 0 26.483 -11.857 26.483 -26.483 V 88.276 C 512 73.65 500.143 61.793 485.517 61.793 z M 441.379 79.448 h 8.828 c 4.875 0 8.828 3.953 8.828 8.828 c 0 4.875 -3.953 8.828 -8.828 8.828 h -8.828 c -4.875 0 -8.828 -3.953 -8.828 -8.828 C 432.552 83.401 436.504 79.448 441.379 79.448 z M 194.207 79.448 h 211.862 c 4.875 0 8.828 3.953 8.828 8.828 c 0 4.875 -3.953 8.828 -8.828 8.828 H 194.207 c -4.875 0 -8.828 -3.953 -8.828 -8.828 C 185.379 83.401 189.332 79.448 194.207 79.448 z M 150.069 79.448 h 8.828 c 4.875 0 8.828 3.953 8.828 8.828 c 0 4.875 -3.953 8.828 -8.828 8.828 h -8.828 c -4.875 0 -8.828 -3.953 -8.828 -8.828 C 141.241 83.401 145.194 79.448 150.069 79.448 z M 114.759 79.448 h 8.828 c 4.875 0 8.828 3.953 8.828 8.828 c 0 4.875 -3.953 8.828 -8.828 8.828 h -8.828 c -4.875 0 -8.828 -3.953 -8.828 -8.828 C 105.931 83.401 109.884 79.448 114.759 79.448 z M 79.448 79.448 c 4.875 0 8.828 3.953 8.828 8.828 c 0 4.875 -3.953 8.828 -8.828 8.828 c -4.875 0 -8.828 -3.953 -8.828 -8.828 C 70.621 83.401 74.573 79.448 79.448 79.448 z M 52.966 79.448 c 4.875 0 8.828 3.953 8.828 8.828 c 0 4.875 -3.953 8.828 -8.828 8.828 s -8.828 -3.953 -8.828 -8.828 C 44.138 83.401 48.09 79.448 52.966 79.448 z M 26.483 79.448 c 4.875 0 8.828 3.953 8.828 8.828 c 0 4.875 -3.953 8.828 -8.828 8.828 s -8.828 -3.953 -8.828 -8.828 C 17.655 83.401 21.608 79.448 26.483 79.448 z M 494.345 423.724 c 0 4.875 -3.953 8.828 -8.828 8.828 H 26.483 c -4.875 0 -8.828 -3.953 -8.828 -8.828 V 123.586 c 0 -4.875 3.953 -8.828 8.828 -8.828 h 459.034 c 4.875 0 8.828 3.953 8.828 8.828 V 423.724 z M 485.517 97.103 h -8.828 c -4.875 0 -8.828 -3.953 -8.828 -8.828 c 0 -4.875 3.953 -8.828 8.828 -8.828 h 8.828 c 4.875 0 8.828 3.953 8.828 8.828 C 494.345 93.151 490.392 97.103 485.517 97.103 z" style="stroke: none; stroke-width: 1; stroke-dasharray: none; stroke-linecap: butt; stroke-linejoin: miter; stroke-miterlimit: 10; fill: #D2DCF0; fill-rule: nonzero; opacity: 1;" transform=" matrix(1 0 0 1 0 0) " stroke-linecap="round" />
  <path d="M 485.517 114.759 H 26.483 c -4.875 0 -8.828 3.953 -8.828 8.828 v 300.138 c 0 4.875 3.953 8.828 8.828 8.828 h 459.034 c 4.875 0 8.828 -3.953 8.828 -8.828 V 123.586 C 494.345 118.711 490.392 114.759 485.517 114.759 z M 183.194 338.461 c 3.211 3.672 2.84 9.246 -0.828 12.457 c -1.677 1.465 -3.75 2.185 -5.811 2.185 c -2.457 0 -4.9 -1.022 -6.646 -3.012 l -61.793 -70.621 c -2.914 -3.332 -2.914 -8.298 0 -11.629 l 61.793 -70.621 c 3.211 -3.659 8.785 -4.034 12.457 -0.828 c 3.668 3.211 4.039 8.785 0.828 12.457 l -56.707 64.807 L 183.194 338.461 z M 299.561 188.522 L 228.94 373.901 c -1.341 3.521 -4.694 5.689 -8.25 5.689 c -1.047 0 -2.108 -0.19 -3.143 -0.582 c -4.556 -1.737 -6.84 -6.836 -5.108 -11.392 l 70.621 -185.379 c 1.737 -4.561 6.836 -6.836 11.392 -5.108 C 299.009 178.867 301.293 183.966 299.561 188.522 z M 403.884 279.47 l -61.793 70.621 c -1.746 1.992 -4.19 3.012 -6.646 3.012 c -2.06 0 -4.134 -0.719 -5.811 -2.185 c -3.668 -3.211 -4.039 -8.785 -0.828 -12.457 l 56.706 -64.807 l -56.707 -64.806 c -3.211 -3.672 -2.84 -9.246 0.828 -12.457 c 3.677 -3.215 9.246 -2.836 12.457 0.828 l 61.793 70.621 C 406.797 271.172 406.797 276.138 403.884 279.47 z" style="stroke: none; stroke-width: 1; stroke-dasharray: none; stroke-linecap: butt; stroke-linejoin: miter; stroke-miterlimit: 10; fill: #ffa600; fill-rule: nonzero; opacity: 1;" transform=" matrix(1 0 0 1 0 0) " stroke-linecap="round" />
  <circle cx="26.488" cy="88.278" r="8.828" style="stroke: none; stroke-width: 1; stroke-dasharray: none; stroke-linecap: butt; stroke-linejoin: miter; stroke-miterlimit: 10; fill: #000000; fill-rule: nonzero; opacity: 1;" transform="  matrix(1 0 0 1 0 0) "/>
  <circle cx="52.968" cy="88.278" r="8.828" style="stroke: none; stroke-width: 1; stroke-dasharray: none; stroke-linecap: butt; stroke-linejoin: miter; stroke-miterlimit: 10; fill: #FFE169; fill-rule: nonzero; opacity: 1;" transform="  matrix(1 0 0 1 0 0) "/>
  <circle cx="79.44800000000001" cy="88.278" r="8.828" style="stroke: none; stroke-width: 1; stroke-dasharray: none; stroke-linecap: butt; stroke-linejoin: miter; stroke-miterlimit: 10; fill: #87E1AA; fill-rule: nonzero; opacity: 1;" transform="  matrix(1 0 0 1 0 0) "/>
  <path d="M 114.759 97.103 h 8.828 c 4.875 0 8.828 -3.953 8.828 -8.828 c 0 -4.875 -3.953 -8.828 -8.828 -8.828 h -8.828 c -4.875 0 -8.828 3.953 -8.828 8.828 C 105.931 93.151 109.884 97.103 114.759 97.103 z" style="stroke: none; stroke-width: 1; stroke-dasharray: none; stroke-linecap: butt; stroke-linejoin: miter; stroke-miterlimit: 10; fill: #E4EAF6; fill-rule: nonzero; opacity: 1;" transform=" matrix(1 0 0 1 0 0) " stroke-linecap="round" />
  <path d="M 150.069 97.103 h 8.828 c 4.875 0 8.828 -3.953 8.828 -8.828 c 0 -4.875 -3.953 -8.828 -8.828 -8.828 h -8.828 c -4.875 0 -8.828 3.953 -8.828 8.828 C 141.241 93.151 145.194 97.103 150.069 97.103 z" style="stroke: none; stroke-width: 1; stroke-dasharray: none; stroke-linecap: butt; stroke-linejoin: miter; stroke-miterlimit: 10; fill: #E4EAF6; fill-rule: nonzero; opacity: 1;" transform=" matrix(1 0 0 1 0 0) " stroke-linecap="round" />
  <path d="M 441.379 97.103 h 8.828 c 4.875 0 8.828 -3.953 8.828 -8.828 c 0 -4.875 -3.953 -8.828 -8.828 -8.828 h -8.828 c -4.875 0 -8.828 3.953 -8.828 8.828 C 432.552 93.151 436.504 97.103 441.379 97.103 z" style="stroke: none; stroke-width: 1; stroke-dasharray: none; stroke-linecap: butt; stroke-linejoin: miter; stroke-miterlimit: 10; fill: #E4EAF6; fill-rule: nonzero; opacity: 1;" transform=" matrix(1 0 0 1 0 0) " stroke-linecap="round" />
  <path d="M 485.517 79.448 h -8.828 c -4.875 0 -8.828 3.953 -8.828 8.828 c 0 4.875 3.953 8.828 8.828 8.828 h 8.828 c 4.875 0 8.828 -3.953 8.828 -8.828 C 494.345 83.401 490.392 79.448 485.517 79.448 z" style="stroke: none; stroke-width: 1; stroke-dasharray: none; stroke-linecap: butt; stroke-linejoin: miter; stroke-miterlimit: 10; fill: #E4EAF6; fill-rule: nonzero; opacity: 1;" transform=" matrix(1 0 0 1 0 0) " stroke-linecap="round" />
  <path d="M 194.207 97.103 h 211.862 c 4.875 0 8.828 -3.953 8.828 -8.828 c 0 -4.875 -3.953 -8.828 -8.828 -8.828 H 194.207 c -4.875 0 -8.828 3.953 -8.828 8.828 C 185.379 93.151 189.332 97.103 194.207 97.103 z" style="stroke: none; stroke-width: 1; stroke-dasharray: none; stroke-linecap: butt; stroke-linejoin: miter; stroke-miterlimit: 10; fill: #E4EAF6; fill-rule: nonzero; opacity: 1;" transform=" matrix(1 0 0 1 0 0) " stroke-linecap="round" />
  <path d="M 182.367 196.392 c -3.672 -3.207 -9.246 -2.831 -12.457 0.828 l -61.793 70.621 c -2.914 3.332 -2.914 8.298 0 11.629 l 61.793 70.621 c 1.746 1.992 4.19 3.012 6.646 3.012 c 2.06 0 4.134 -0.719 5.811 -2.185 c 3.668 -3.211 4.039 -8.785 0.828 -12.457 l -56.707 -64.805 l 56.707 -64.806 C 186.406 205.176 186.035 199.604 182.367 196.392 z" style="stroke: none; stroke-width: 1; stroke-dasharray: none; stroke-linecap: butt; stroke-linejoin: miter; stroke-miterlimit: 10; fill: #000000; fill-rule: nonzero; opacity: 1;" transform=" matrix(1 0 0 1 0 0) " stroke-linecap="round" />
  <path d="M 342.091 197.219 c -3.211 -3.663 -8.78 -4.043 -12.457 -0.828 c -3.668 3.211 -4.039 8.785 -0.828 12.457 l 56.706 64.807 l -56.707 64.806 c -3.211 3.672 -2.84 9.246 0.828 12.457 c 1.677 1.465 3.75 2.185 5.811 2.185 c 2.457 0 4.9 -1.022 6.646 -3.012 l 61.793 -70.621 c 2.914 -3.332 2.914 -8.298 0 -11.629 L 342.091 197.219 z" style="stroke: none; stroke-width: 1; stroke-dasharray: none; stroke-linecap: butt; stroke-linejoin: miter; stroke-miterlimit: 10; fill: #000000; fill-rule: nonzero; opacity: 1;" transform=" matrix(1 0 0 1 0 0) " stroke-linecap="round" />
  <path d="M 294.453 177.129 c -4.556 -1.728 -9.655 0.547 -11.392 5.108 L 212.44 367.616 c -1.732 4.556 0.552 9.655 5.108 11.392 c 1.035 0.392 2.094 0.582 3.143 0.582 c 3.556 0 6.91 -2.168 8.25 -5.689 l 70.621 -185.379 C 301.293 183.966 299.009 178.867 294.453 177.129 z" style="stroke: none; stroke-width: 1; stroke-dasharray: none; stroke-linecap: butt; stroke-linejoin: miter; stroke-miterlimit: 10; fill: #000000; fill-rule: nonzero; opacity: 1;" transform=" matrix(1 0 0 1 0 0) " stroke-linecap="round" />
</g>
  <g transform="translate(149.18 227.72)">
   <text font-family="Halcion" font-size="40" font-weight="normal" style="stroke: none; stroke-width: 1; stroke-dasharray: none; stroke-linecap: butt; stroke-linejoin: miter; stroke-miterlimit: 10; fill: #000000; fill-rule: nonzero; opacity: 1;" ><tspan x="-138.68" y="8.98" style="stroke: none; stroke-width: 0; stroke-dasharray: none; stroke-linecap: butt; stroke-linejoin: miter; stroke-miterlimit: 4; fill: #000000; fill-rule: ; opacity: 1;">C</tspan><tspan x="-105.36" y="8.98" style="stroke: none; stroke-width: 0; stroke-dasharray: none; stroke-linecap: butt; stroke-linejoin: miter; stroke-miterlimit: 4; fill: #000000; fill-rule: ; opacity: 1;">o</tspan><tspan x="-75.48" y="8.98" style="stroke: none; stroke-width: 0; stroke-dasharray: none; stroke-linecap: butt; stroke-linejoin: miter; stroke-miterlimit: 4; fill: #000000; fill-rule: ; opacity: 1;">d</tspan><tspan x="-50.32" y="8.98" style="stroke: none; stroke-width: 0; stroke-dasharray: none; stroke-linecap: butt; stroke-linejoin: miter; stroke-miterlimit: 4; fill: #000000; fill-rule: ; opacity: 1;">d</tspan><tspan x="-25.16" y="8.98" style="stroke: none; stroke-width: 0; stroke-dasharray: none; stroke-linecap: butt; stroke-linejoin: miter; stroke-miterlimit: 4; fill: #000000; fill-rule: ; opacity: 1;">e</tspan><tspan x="-3.08" y="8.98" style="stroke: none; stroke-width: 0; stroke-dasharray: none; stroke-linecap: butt; stroke-linejoin: miter; stroke-miterlimit: 4; fill: #000000; fill-rule: ; opacity: 1;">r</tspan><tspan x="23.52" y="8.98" style="stroke: none; stroke-width: 0; stroke-dasharray: none; stroke-linecap: butt; stroke-linejoin: miter; stroke-miterlimit: 4; fill: #000000; fill-rule: ; opacity: 1;"> </tspan><tspan x="35.52" y="8.98" style="stroke: none; stroke-width: 0; stroke-dasharray: none; stroke-linecap: butt; stroke-linejoin: miter; stroke-miterlimit: 4; fill: #000000; fill-rule: ; opacity: 1;">h</tspan><tspan x="60.12" y="8.98" style="stroke: none; stroke-width: 0; stroke-dasharray: none; stroke-linecap: butt; stroke-linejoin: miter; stroke-miterlimit: 4; fill: #000000; fill-rule: ; opacity: 1;">e</tspan><tspan x="82.2" y="8.98" style="stroke: none; stroke-width: 0; stroke-dasharray: none; stroke-linecap: butt; stroke-linejoin: miter; stroke-miterlimit: 4; fill: #000000; fill-rule: ; opacity: 1;">r</tspan><tspan x="108.8" y="8.98" style="stroke: none; stroke-width: 0; stroke-dasharray: none; stroke-linecap: butt; stroke-linejoin: miter; stroke-miterlimit: 4; fill: #000000; fill-rule: ; opacity: 1;">o</tspan></text>
 </g>
</svg>